<svg aria-hidden="true" xmlns="http://www.w3.org/2000/svg" viewBox="0 0 70 70"><style>g{display:none}g:target{display:inline}</style><g id="satellite"><path d="M67.316 48.34L48.848 29.734l2.05-10.097c.528.207 1.09.316 1.657.32h.015a4.724 4.724 0 00.11-9.445 4.723 4.723 0 00-4.504 6.304l-10.852 1.325L19.63.35A1.176 1.176 0 0018.805 0c-.309 0-.602.125-.817.34L14.68 3.629a1.162 1.162 0 000 1.648l1.777 1.809c-6.895 12.684-4.656 28.387 5.512 38.637.093.09.203.16.32.215-.074.394-.11.792-.113 1.195v13.535h-14A5.84 5.84 0 002.344 66.5v2.332c0 .645.52 1.168 1.164 1.168h53.668c.644 0 1.168-.523 1.168-1.168V66.5a5.84 5.84 0 00-5.836-5.832h-14v-6c2.195.46 4.43.695 6.668.7a32.464 32.464 0 0015.402-3.9l1.79 1.802c.218.218.51.343.823.347.305 0 .598-.125.817-.34l3.308-3.289a1.162 1.162 0 000-1.648zm-16.39-34.703a2.333 2.333 0 013.29 3.309 2.333 2.333 0 01-1.646.675h-.008a2.328 2.328 0 01-2.32-2.344c.004-.617.25-1.207.688-1.64zM48.18 21.3l-1.309 6.445-2.574-2.59zm-1.328-1.973l-4.2 4.176-3.25-3.266zM52.508 63a3.5 3.5 0 013.5 3.5v1.168H4.676V66.5a3.5 3.5 0 013.5-3.5zm-16.332-4.668v2.336H24.508v-2.336zM24.508 56v-8.867c0-2.828 2.617-5.133 5.836-5.133 3.215 0 5.832 2.305 5.832 5.133V56zm14-3.71v-5.157c0-4.117-3.664-7.465-8.164-7.465a8.31 8.31 0 00-7.18 3.906A30.342 30.342 0 0118.18 8.82L58.87 49.746a30.22 30.22 0 01-20.363 2.543zm24.695-1.497l-1.644-1.652L18.793 6.117l-1.652-1.656 1.652-1.645 17.355 17.457c.008 0 .016.016.024.02l28.687 28.855zm0 0" fill="#212121"/><path d="M30.352 44.332h-.008a3.5 3.5 0 10-.012 7h.012a3.498 3.498 0 003.504-3.492 3.503 3.503 0 00-3.496-3.508zm.816 4.328c-.219.219-.516.34-.824.34a1.165 1.165 0 01-.817-1.992 1.14 1.14 0 01.817-.34 1.165 1.165 0 01.816 1.992zm0 0" fill="#2196f3"/></g><g id="astronaut"><path d="M69.941 9.895A1.173 1.173 0 0069 9.102l-4.176-.606-1.87-3.789c-.392-.797-1.7-.797-2.095 0l-1.867 3.79-4.18.605a1.175 1.175 0 00-.945.796c-.137.422-.023.883.297 1.196l3.023 2.945-.71 4.164c-.075.438.105.879.46 1.14a1.16 1.16 0 001.231.09l3.738-1.964 3.739 1.965a1.173 1.173 0 001.23-.09c.36-.262.54-.703.46-1.14l-.71-4.165 3.023-2.945c.317-.313.43-.774.293-1.2zM64.555 12.8a1.16 1.16 0 00-.332 1.031l.414 2.438-2.188-1.153a1.15 1.15 0 00-.543-.133c-.187 0-.37.043-.543.133l-2.191 1.153.418-2.438a1.16 1.16 0 00-.332-1.031l-1.774-1.727 2.45-.36c.379-.054.707-.292.879-.636l1.093-2.215L63 10.078c.168.344.496.582.879.637l2.445.36zm0 0M57.168 44.89h-2.336v2.337h2.336zm0 0M57.168 49.559h-2.336v2.332h2.336zm0 0M59.5 47.227h-2.332v2.332H59.5zm0 0M54.832 47.227H52.5v2.332h2.332zm0 0M49 57.727h-2.332v2.332H49zm0 0M49 62.395h-2.332v2.332H49zm0 0M51.332 60.059H49v2.336h2.332zm0 0M46.668 60.059h-2.336v2.336h2.336zm0 0M35 53.059h-2.332v2.336H35zm0 0M35 57.727h-2.332v2.332H35zm0 0M37.332 55.39H35v2.337h2.332zm0 0M32.668 55.39h-2.336v2.337h2.336zm0 0M12.832 13.39H10.5v2.337h2.332zm0 0M12.832 18.059H10.5v2.332h2.332zm0 0M15.168 15.727h-2.336v2.332h2.336zm0 0M10.5 15.727H8.168v2.332H10.5zm0 0" fill="#2196f3"/><path d="M54.063 30.973a3.868 3.868 0 00-2.598-1.54 3.877 3.877 0 00-2.93.77l-2.738 2.098h-.004l-4.148 3.101-2.973-1.183c5.297-2.375 9-7.672 9-13.824 0-8.364-6.832-15.168-15.227-15.168-8.398 0-15.23 6.804-15.23 15.168 0 3.03.906 5.847 2.453 8.222l-6.047-.055h-.012c-.02 0-.035.012-.05.012-.118.004-.23.028-.34.067-.028.011-.059.015-.082.03-.016.005-.032.005-.043.013L6.02 32.176l-4.145 1.992c-.043.02-.09.047-.137.078A3.901 3.901 0 00.43 39.27c.48.937 1.3 1.625 2.308 1.94a3.86 3.86 0 003.016-.281l3.039-1.613 4.95-2.558 2.968-.016L4.809 48.59h-.004l-2.93 2.918a3.604 3.604 0 00-1.07 2.574c0 .973.379 1.89 1.07 2.578a3.656 3.656 0 002.582 1.063c.934 0 1.867-.356 2.582-1.063l2.875-2.863 3.805-2.84 1.972 1.961-3.855 3.836v.004l-2.93 2.918a3.608 3.608 0 00-1.074 2.574 3.647 3.647 0 003.652 3.64 3.65 3.65 0 002.582-1.062l2.93-2.918 4.688-4.664c0-.004 0-.004.003-.004l2.208-2.187-.008-.008c.015-.016.035-.02.047-.035l11.3-12.375 7.594 1.078c.055.008.11.012.164.012.14 0 .278-.036.41-.082.04-.016.07-.036.11-.055.039-.02.086-.031.125-.059l7.027-4.664c.027-.02.043-.047.066-.066.028-.024.063-.031.09-.055l2.782-2.605a3.895 3.895 0 00.46-5.168zM4.66 38.87a1.551 1.551 0 01-1.223.113 1.56 1.56 0 01-.465-2.754l2.876-1.382.691 2.02.293.85zm7.649-3.996l-3.387 1.75-.559-1.633-.398-1.176 4.433-2.187zm33.03-14.484c0 2.011-.48 3.906-1.308 5.601l-9.148-4.156A4.065 4.065 0 0033.16 18.8l3.203-10.633c5.2 1.656 8.977 6.508 8.977 12.223zm-25.788 0c0-7.075 5.785-12.832 12.894-12.832.555 0 1.094.046 1.63.113l-3.13 10.398c-.043 0-.082-.011-.125-.011-2.261 0-4.097 1.832-4.097 4.082a4.094 4.094 0 004.097 4.086c1.516 0 2.828-.84 3.54-2.067l8.449 3.836c-2.352 3.164-6.114 5.23-10.364 5.23-7.11 0-12.894-5.757-12.894-12.835zm13.031 1.75a1.76 1.76 0 01-1.762 1.75 1.76 1.76 0 01-1.765-1.75c0-.965.793-1.75 1.765-1.75a1.76 1.76 0 011.762 1.75zM5.391 55.008a1.327 1.327 0 01-1.868 0 1.288 1.288 0 01-.386-.926c0-.348.136-.676.386-.922l2.106-2.094 1.86 1.852zm7.03 8.168a1.332 1.332 0 01-1.87 0 1.313 1.313 0 01-.383-.926c0-.348.137-.676.383-.922l2.105-2.098.883.875.98.98zm7.618-7.59c-.004 0-.004 0-.004.004l-3.86 3.847-.882-.874-.98-.977 3.855-3.84v-.004h.004c.086-.09.14-.191.195-.297.016-.03.043-.054.059-.086.035-.09.043-.187.054-.28.008-.056.032-.106.032-.161 0-.078-.028-.152-.043-.23-.016-.07-.016-.141-.043-.211-.043-.11-.121-.204-.2-.301-.023-.024-.03-.059-.054-.082-.004 0-.004-.004-.004-.004l-3.516-3.5c-.035-.04-.086-.055-.125-.086a1.24 1.24 0 00-.191-.125 1.25 1.25 0 00-.203-.07 1.105 1.105 0 00-.227-.043.922.922 0 00-.207.011c-.078.008-.152.02-.23.043-.07.024-.137.059-.207.098-.043.023-.09.031-.133.062L9.25 51.375l-1.969-1.96 5.246-5.22 9.54 9.38zm14.914-15.348c-.031-.004-.062.008-.098.004a1.386 1.386 0 00-.253.016 1.054 1.054 0 00-.192.047c-.074.027-.14.062-.21.101a.874.874 0 00-.18.137c-.032.023-.063.035-.09.062L23.652 51.863l-9.468-9.312 6.199-6.164a1.17 1.17 0 00.004-1.653 1.153 1.153 0 00-.836-.34v-.003l-4.852.03.059-3.515 6.793.059a15.2 15.2 0 0010.894 4.594c.957 0 1.89-.098 2.801-.27.086.07.172.145.281.188l5.274 2.097.332 1.66.39 1.938zm8.84.387l-.684-3.406 3.164-2.364.829 1.102 1.242 1.648zm8.21-6.191l-1.831 1.718-2.035-2.707 1.816-1.39c.34-.262.77-.371 1.188-.313.422.059.797.278 1.05.621a1.559 1.559 0 01-.187 2.07zm0 0" fill="#212121"/><path d="M29.754 40.566l-4.688-4.668a1.165 1.165 0 00-1.644 0l-4.688 4.668a1.168 1.168 0 000 1.653l4.688 4.668c.226.226.523.34.824.34.297 0 .594-.114.82-.34l4.688-4.668a1.17 1.17 0 00.344-.828c0-.309-.121-.606-.344-.825zm-5.508 3.848l-3.035-3.023 3.035-3.02 3.031 3.02zm0 0M37.547 11.094l-.563 2.265c.153.04 3.801.989 3.801 4.7h2.332c0-4.414-3.644-6.489-5.57-6.965zm0 0M43.117 20.39h-2.332v2.337h2.332zm0 0" fill="#212121"/></g><g id="clock"><path d="M68.46 33.473C68.458 14.98 53.466-.004 34.978 0 16.484.004 1.5 14.996 1.504 33.484A33.48 33.48 0 0024.8 65.371c.133.043.27.063.406.063.266 0 .523-.07.75-.204.297-.175.516-.453.621-.78l8.453-26.798a4.184 4.184 0 004.164-4.207 4.184 4.184 0 00-4.207-4.164 4.192 4.192 0 00-1.793.418L22.023 18.531a1.394 1.394 0 00-1.968 1.973l11.16 11.176a4.103 4.103 0 001.176 5.05l-8.059 25.536C8.414 56.398.262 38.742 6.125 22.82 11.992 6.898 29.652-1.25 45.57 4.613c15.922 5.864 24.075 23.524 18.207 39.446A30.712 30.712 0 0147.453 61.5l-.867-4.102a1.396 1.396 0 00-2.297-.75l-8.39 7.493a1.389 1.389 0 00-.114 1.968c.164.188.38.329.617.403l10.715 3.422a1.4 1.4 0 001.758-.903c.074-.23.086-.48.035-.715l-.855-4.023a33.37 33.37 0 0020.406-30.82zm-33.476-1.395a1.395 1.395 0 11-.001 2.79 1.395 1.395 0 01.001-2.79zm4.594 32.512l4.777-4.262 1.317 6.215zm0 0" fill="#212121"/><path d="M33.59 6.969v2.789a1.395 1.395 0 002.79 0l-.001-2.79c0-.773-.625-1.394-1.395-1.394A1.39 1.39 0 0033.59 6.97zm0 0M8.48 32.078c-.773 0-1.398.625-1.398 1.395s.625 1.394 1.398 1.394h2.79a1.395 1.395 0 000-2.789zm0 0M61.488 34.867a1.395 1.395 0 000-2.789h-2.793a1.395 1.395 0 000 2.79zm0 0" fill="#2196f3"/></g><g id="laptop"><path d="M32.648 32.734h2.332V43.23h-2.332zm0 0M41.977 37.398h2.332v5.832h-2.332zm0 0M23.32 40.898h2.332v2.332H23.32zm0 0M16.324 39.73h2.332v3.5h-2.332zm0 0" fill="#2196f3"/><path d="M3.5 61.887h55.969a3.5 3.5 0 003.5-3.5v-4.664a3.498 3.498 0 00-3.5-3.496h-1.164V21.148l6.62-6.277a3.518 3.518 0 10-1.632-1.668l-4.988 4.73v-2.687a3.5 3.5 0 00-3.5-3.5H8.165a3.5 3.5 0 00-3.5 3.5v34.98H3.5A3.498 3.498 0 000 53.724v4.664a3.5 3.5 0 003.5 3.5zm62.965-51.309a1.165 1.165 0 11.005 2.333 1.165 1.165 0 01-.005-2.333zM6.996 15.246c0-.644.524-1.168 1.168-1.168h46.64c.645 0 1.165.524 1.165 1.168v4.895l-2.332 2.214v-4.777c0-.644-.52-1.168-1.164-1.168H10.496c-.644 0-1.168.524-1.168 1.168v29.149c0 .644.524 1.168 1.168 1.168h41.977c.644 0 1.164-.524 1.164-1.168v-21.16l2.332-2.212v26.872H6.996zm10.496 15.156a3.498 3.498 0 00-1.797 6.508 3.5 3.5 0 004.22-.496l4.05 2.035a1.17 1.17 0 001.394-.27l8.614-9.69 8.472 6.343a1.161 1.161 0 001.5-.086l7.36-6.973v17.79H11.66v-26.82h39.645v5.82l-8.25 7.812-8.54-6.402a1.166 1.166 0 00-1.57.156l-8.734 9.828-3.266-1.633c.024-.14.04-.281.043-.422 0-1.933-1.566-3.5-3.496-3.5zm1.164 3.5a1.165 1.165 0 11-2.333-.002 1.165 1.165 0 012.333.002zm6.996 18.657h11.66v1.164c0 .644-.519 1.168-1.164 1.168H26.82a1.169 1.169 0 01-1.168-1.168zm-23.32 1.164c0-.641.523-1.164 1.168-1.164h19.82v1.164a3.5 3.5 0 003.5 3.5h9.328a3.498 3.498 0 003.497-3.5v-1.164h19.824c.644 0 1.168.523 1.168 1.164v4.664c0 .644-.524 1.168-1.168 1.168H3.5a1.169 1.169 0 01-1.168-1.168zm0 0" fill="#212121"/></g></svg>